# xmcd
#
# Track frame offsets:
#	150
#	11266
#	21053
#	32089
#	43633
#	51048
#	65554
#	75648
#	87311
#	98337
#	110777
#	120040
#	130489
#	144935
#	155324
#
# Disc length: 2226 seconds
#
# Revision: 1
# Processed by: cddbd v1.5.2PL0 Copyright (c) Steve Scherf et al.
# Submitted via: EasyCDDAExtractor 10.0.3.1
#
DISCID=af08b00f
DTITLE=Various Artist - Country Classics Volume Three
DYEAR=1999
DGENRE=Country
TTITLE0=Lynn Anderson - Even Cowgirls Get The Blues
TTITLE1=Kenny Rogers - Where Does Rosie Go
TTITLE2=Tammy Wynette - D.I.V.O.R.C.E.
TTITLE3=Willie Nelson - I'll Stay Around
TTITLE4=Dolly Parton - Puppy Love
TTITLE5=Merle Haggard - Fulsom Prison Blues
TTITLE6=Anne Murray - Some Birds
TTITLE7=Woody Guthrie - Hard, Ain't It Hard
TTITLE8=Tammy Wynette - Stand By Your Man
TTITLE9=Don Williams - You're My Best Friend
TTITLE10=Dolly Parton - Girl Left Alone
TTITLE11=Waylon Jennings - Burning Memories
TTITLE12=Lynn Anderson - Cry
TTITLE13=Willie Nelson - Blame It On The Times
TTITLE14=Dolly Parton - Making Believe
EXTD=
EXTT0=
EXTT1=
EXTT2=
EXTT3=
EXTT4=
EXTT5=
EXTT6=
EXTT7=
EXTT8=
EXTT9=
EXTT10=
EXTT11=
EXTT12=
EXTT13=
EXTT14=
PLAYORDER=
